<svg width="198" height="198" viewBox="0 0 198 198" fill="none" xmlns="http://www.w3.org/2000/svg">
<path fill-rule="evenodd" clip-rule="evenodd" d="M41.2506 131.999C41.2506 118.352 52.351 107.259 66.0006 107.259L90.7506 107.249V131.999C90.7506 145.649 79.6478 156.749 66.0006 156.749C52.351 156.749 41.2506 145.649 41.2506 131.999ZM131.999 41.2506C145.649 41.2506 156.749 52.351 156.749 66.0006C156.749 79.6478 145.649 90.7506 131.999 90.7506H107.249V66.0006C107.249 52.3535 118.352 41.2506 131.999 41.2506ZM181.499 0C190.573 0 198 7.42747 198 16.5008V181.499C198 190.573 190.573 198 181.499 198H16.5008C7.42747 198 0 190.573 0 181.502V16.5008C0 7.42747 7.42747 0 16.5008 0H181.499ZM131.999 107.249C154.742 107.249 173.25 88.7436 173.25 66.0008C173.25 43.2556 154.742 24.75 131.999 24.75C109.256 24.75 90.7508 43.2556 90.7508 66.0008V90.7508H66.0008C43.258 90.7508 24.75 109.256 24.75 131.999C24.75 154.742 43.258 173.25 66.0008 173.25C88.7436 173.25 107.249 154.742 107.249 131.999V107.249H131.999Z" fill="#0074E4"/>
</svg>
