<svg width="100" height="100" viewBox="0 0 495 198" fill="none" xmlns="http://www.w3.org/2000/svg"  >
<path fill-rule="evenodd" clip-rule="evenodd" d="M41.2506 131.999C41.2506 118.352 52.351 107.259 66.0006 107.259L90.7506 107.249V131.999C90.7506 145.649 79.6478 156.749 66.0006 156.749C52.351 156.749 41.2506 145.649 41.2506 131.999ZM131.999 41.2506C145.649 41.2506 156.749 52.351 156.749 66.0006C156.749 79.6478 145.649 90.7506 131.999 90.7506H107.249V66.0006C107.249 52.3535 118.352 41.2506 131.999 41.2506ZM181.499 0C190.573 0 198 7.42747 198 16.5008V181.499C198 190.573 190.573 198 181.499 198H16.5008C7.42747 198 0 190.573 0 181.502V16.5008C0 7.42747 7.42747 0 16.5008 0H181.499ZM131.999 107.249C154.742 107.249 173.25 88.7436 173.25 66.0008C173.25 43.2556 154.742 24.75 131.999 24.75C109.256 24.75 90.7508 43.2556 90.7508 66.0008V90.7508H66.0008C43.258 90.7508 24.75 109.256 24.75 131.999C24.75 154.742 43.258 173.25 66.0008 173.25C88.7436 173.25 107.249 154.742 107.249 131.999V107.249H131.999Z" fill="#0074E4"/>
<path d="M284.768 93.5279C284.768 121.176 273.845 135 252 135H225.632V55.5119H252.512C264.203 55.5119 272.48 58.7972 277.344 65.3679C282.293 71.8532 284.768 81.2399 284.768 93.5279ZM251.616 116.568C256.139 116.568 259.04 114.989 260.32 111.832C261.685 108.589 262.368 103.213 262.368 95.7039C262.368 88.1092 261.643 82.7332 260.192 79.5759C258.827 76.4186 255.84 74.8399 251.232 74.8399H247.392V116.568H251.616Z" fill="currentColor"/>
<path d="M314.127 74.3279V136.536C314.127 143.192 312.634 147.715 309.647 150.104C306.746 152.579 301.284 153.816 293.263 153.816H286.863L285.071 136.152H289.423C290.874 136.152 291.769 135.939 292.111 135.512C292.537 135.171 292.751 134.36 292.751 133.08V74.3279H314.127ZM294.287 69.4639C292.495 67.9279 291.599 65.4532 291.599 62.0399C291.599 58.6266 292.495 56.1092 294.287 54.4879C296.079 52.8666 299.023 52.0559 303.119 52.0559C307.215 52.0559 310.159 52.8666 311.951 54.4879C313.743 56.1092 314.639 58.6266 314.639 62.0399C314.639 65.3679 313.743 67.8426 311.951 69.4639C310.159 70.9999 307.215 71.7679 303.119 71.7679C299.023 71.7679 296.079 70.9999 294.287 69.4639Z" fill="currentColor"/>
<path d="M338.197 136.28C328.042 136.28 322.965 130.648 322.965 119.384V73.6879H344.725V114.136C344.725 116.269 345.664 117.336 347.541 117.336C349.93 117.336 351.936 116.739 353.557 115.544V73.6879H375.061V134.744H354.709V130.264H354.197C349.504 134.275 344.17 136.28 338.197 136.28Z" fill="currentColor"/>
<path d="M404.091 78.1679C408.784 74.1572 413.947 72.1519 419.579 72.1519C425.211 72.1519 429.136 73.4746 431.355 76.1199C433.659 78.6799 434.811 82.5626 434.811 87.7679V135H413.051V95.0639C413.051 92.9306 412.112 91.8639 410.235 91.8639C407.845 91.8639 405.84 92.4612 404.219 93.6559V135H382.715V73.6879H402.299L403.579 78.1679H404.091Z" fill="currentColor"/>
<path d="M441.441 104.152C441.441 92.8879 443.574 84.7386 447.841 79.7039C452.193 74.6692 458.934 72.1519 468.065 72.1519C477.281 72.1519 483.979 74.6266 488.161 79.5759C492.342 84.5252 494.433 92.6746 494.433 104.024C494.433 115.288 492.385 123.48 488.289 128.6C484.193 133.72 477.494 136.28 468.193 136.28C458.892 136.28 452.108 133.72 447.841 128.6C443.574 123.48 441.441 115.331 441.441 104.152ZM472.161 91.9919C471.649 90.2852 470.284 89.4319 468.065 89.4319C465.846 89.4319 464.438 90.2852 463.841 91.9919C463.244 93.6986 462.945 97.2826 462.945 102.744V105.816C462.945 111.875 463.244 115.8 463.841 117.592C464.438 119.384 465.804 120.28 467.937 120.28C470.156 120.28 471.564 119.384 472.161 117.592C472.758 115.8 473.057 112.131 473.057 106.584V102.872C473.057 97.3252 472.758 93.6986 472.161 91.9919Z" fill="currentColor"/>
</svg>
